<svg width="26" height="26" viewBox="0 0 26 26" fill="none" xmlns="http://www.w3.org/2000/svg">
<path d="M13 0C5.81953 0 0 5.40312 0 12.0714C0 14.95 1.08672 17.5848 2.89453 19.6567C2.25977 22.5817 0.137109 25.1875 0.111719 25.2165C0 25.35 -0.0304687 25.5473 0.0355469 25.7214C0.101562 25.8955 0.24375 26 0.40625 26C3.77305 26 6.29688 24.1545 7.54609 23.017C9.20664 23.7308 11.05 24.1429 13 24.1429C20.1805 24.1429 26 18.7397 26 12.0714C26 5.40312 20.1805 0 13 0ZM6.5 13.9286C5.60117 13.9286 4.875 13.0987 4.875 12.0714C4.875 11.0442 5.60117 10.2143 6.5 10.2143C7.39883 10.2143 8.125 11.0442 8.125 12.0714C8.125 13.0987 7.39883 13.9286 6.5 13.9286ZM13 13.9286C12.1012 13.9286 11.375 13.0987 11.375 12.0714C11.375 11.0442 12.1012 10.2143 13 10.2143C13.8988 10.2143 14.625 11.0442 14.625 12.0714C14.625 13.0987 13.8988 13.9286 13 13.9286ZM19.5 13.9286C18.6012 13.9286 17.875 13.0987 17.875 12.0714C17.875 11.0442 18.6012 10.2143 19.5 10.2143C20.3988 10.2143 21.125 11.0442 21.125 12.0714C21.125 13.0987 20.3988 13.9286 19.5 13.9286Z" fill="#030B17"/>
</svg>
