<svg width="26" height="26" viewBox="0 0 26 26" fill="none" xmlns="http://www.w3.org/2000/svg">
<path d="M7.57148 1.90357L7.04336 3.71429H3.25C1.45742 3.71429 0 5.37991 0 7.42857V22.2857C0 24.3344 1.45742 26 3.25 26H22.75C24.5426 26 26 24.3344 26 22.2857V7.42857C26 5.37991 24.5426 3.71429 22.75 3.71429H18.9566L18.4285 1.90357C18.0984 0.766072 17.1691 0 16.118 0H9.88203C8.83086 0 7.90156 0.766072 7.57148 1.90357ZM13 9.28571C14.2929 9.28571 15.5329 9.8727 16.4471 10.9175C17.3614 11.9624 17.875 13.3795 17.875 14.8571C17.875 16.3348 17.3614 17.7519 16.4471 18.7967C15.5329 19.8416 14.2929 20.4286 13 20.4286C11.7071 20.4286 10.4671 19.8416 9.55285 18.7967C8.63861 17.7519 8.125 16.3348 8.125 14.8571C8.125 13.3795 8.63861 11.9624 9.55285 10.9175C10.4671 9.8727 11.7071 9.28571 13 9.28571Z" fill="#030B17"/>
</svg>
