<svg width="37" height="40" viewBox="0 0 37 40" fill="none" xmlns="http://www.w3.org/2000/svg">
<path d="M10.4825 31.3271C33.1543 31.3271 34.9803 12.038 35.1248 2.87314C35.1415 1.82585 34.2647 0.981091 33.2174 1.00032C1 1.59203 1 17.211 1 31.3271V38.9131" fill="#0DA72F"/>
<path d="M10.4825 31.3271C33.1543 31.3271 34.9803 12.038 35.1248 2.87314C35.1415 1.82585 34.2647 0.981091 33.2175 1.00032C1 1.59203 1 17.211 1 31.3271V38.9131" stroke="#E8EAF0" stroke-width="2" stroke-linecap="round" stroke-linejoin="round"/>
<path d="M1 31.327C1 31.327 1 19.948 16.172 18.0515L1 31.327Z" fill="#0DA72F"/>
<path d="M1 31.327C1 31.327 1 19.948 16.172 18.0515" stroke="#E8EAF0" stroke-width="2" stroke-linecap="round" stroke-linejoin="round"/>
</svg>
