<svg width="31" height="37" viewBox="0 0 31 37" fill="none" xmlns="http://www.w3.org/2000/svg">
<path d="M22.6613 0C23.3471 4.11528 19.0504 7.23426 16.6481 8.63279C15.9396 9.04534 15.14 8.52002 15.2622 7.7092C15.6728 4.98314 17.1737 0.000151074 22.6613 0Z" fill="#CE2626"/>
<path d="M9.44213 8.49792C11.1356 8.49792 12.6345 8.8745 13.7751 9.29131C15.2137 9.81709 16.8895 9.81707 18.3281 9.29129C19.4685 8.87448 20.9676 8.49792 22.6609 8.49792C24.7104 8.49792 27.3159 9.61 29.2704 11.8341C22.6611 16.9958 24.5495 25.4938 30.7228 27.744C28.7519 33.1593 25.0052 36.8243 21.7167 36.8243C18.8841 36.8243 18.8843 35.5024 16.0516 35.5024C13.219 35.5024 13.219 36.8243 10.3863 36.8243C5.66528 36.8243 0 29.2706 0 19.8285C0 12.2748 5.66528 8.49792 9.44213 8.49792Z" fill="#CE2626"/>
</svg>
