<svg width="38" height="40" viewBox="0 0 38 40" fill="none" xmlns="http://www.w3.org/2000/svg">
<path d="M36.2888 14.4615C36.1132 14.9541 35.8405 15.4065 35.4869 15.7918C35.1335 16.1771 34.7062 16.4877 34.2305 16.7051C31.6987 17.8384 29.5478 19.6783 28.0361 22.0043C26.5247 24.3302 25.7166 27.0428 25.709 29.8167C25.7121 30.7843 25.8086 31.7492 25.9971 32.6983C26.1229 33.2784 26.1311 33.8777 26.0216 34.4611C25.9119 35.0442 25.6867 35.5997 25.3591 36.0946C25.0818 36.5276 24.7171 36.8979 24.2881 37.1816C23.8592 37.465 23.3754 37.6558 22.8685 37.7412C21.7689 37.9479 20.6527 38.0512 19.534 38.05C17.052 38.0512 14.595 37.5535 12.3091 36.5867C10.0231 35.6199 7.95473 34.2038 6.22676 32.4219C4.49881 30.6402 3.1465 28.5296 2.25018 26.215C1.35384 23.9004 0.931758 21.4294 1.00897 18.9487C1.16871 14.3232 3.04468 9.92277 6.27136 6.60476C9.49806 3.28675 13.8444 1.28874 18.4636 1H19.5134C22.9625 1.00086 26.3431 1.96472 29.2742 3.78301C32.2053 5.60128 34.5705 8.2018 36.1036 11.2917C36.5753 12.2693 36.642 13.3938 36.2888 14.4203V14.4615Z" fill="#212121" stroke="#E8EAF0" stroke-width="2"/>
<path d="M10.5398 27.7795L10.5609 27.756L10.5398 27.7795Z" fill="#212121"/>
<path d="M10.5398 27.7795L10.5609 27.756" stroke="#E8EAF0" stroke-width="2" stroke-linecap="round" stroke-linejoin="round"/>
<path d="M6.4231 19.5461L6.44421 19.5227L6.4231 19.5461Z" fill="#212121"/>
<path d="M6.4231 19.5461L6.44421 19.5227" stroke="#E8EAF0" stroke-width="2" stroke-linecap="round" stroke-linejoin="round"/>
<path d="M10.5398 11.3128L10.5609 11.2894L10.5398 11.3128Z" fill="#212121"/>
<path d="M10.5398 11.3128L10.5609 11.2894" stroke="#E8EAF0" stroke-width="2" stroke-linecap="round" stroke-linejoin="round"/>
<path d="M18.7732 7.19612L18.7943 7.17267L18.7732 7.19612Z" fill="#212121"/>
<path d="M18.7732 7.19612L18.7943 7.17267" stroke="#E8EAF0" stroke-width="2" stroke-linecap="round" stroke-linejoin="round"/>
<path d="M27.0066 11.3128L27.0277 11.2894L27.0066 11.3128Z" fill="#212121"/>
<path d="M27.0066 11.3128L27.0277 11.2894" stroke="#E8EAF0" stroke-width="2" stroke-linecap="round" stroke-linejoin="round"/>
</svg>
