<svg width="26" height="26" viewBox="0 0 26 26" fill="none" xmlns="http://www.w3.org/2000/svg">
<path d="M25.9932 12.9746C25.9932 13.8887 25.316 14.6047 24.5486 14.6047H23.104L23.1356 22.7398C23.1356 22.877 23.1266 23.0141 23.1131 23.1512V23.9688C23.1131 25.091 22.305 26 21.3074 26H20.5851C20.5354 26 20.4858 26 20.4361 25.9949C20.3729 26 20.3097 26 20.2465 26H18.7794H17.6959C16.6983 26 15.8902 25.091 15.8902 23.9688V22.75V19.5C15.8902 18.6012 15.2447 17.875 14.4457 17.875H11.5565C10.7575 17.875 10.112 18.6012 10.112 19.5V22.75V23.9688C10.112 25.091 9.30392 26 8.30626 26H7.22284H5.78278C5.71507 26 5.64736 25.9949 5.57964 25.9898C5.52547 25.9949 5.4713 26 5.41713 26H4.69484C3.69719 26 2.88913 25.091 2.88913 23.9688V18.2812C2.88913 18.2355 2.88913 18.1848 2.89365 18.1391V14.6047H1.44457C0.631998 14.6047 0 13.8938 0 12.9746C0 12.5176 0.135428 12.1113 0.451427 11.7559L12.026 0.40625C12.342 0.0507812 12.7032 0 13.0192 0C13.3352 0 13.6963 0.101562 13.9672 0.355469L25.4966 11.7559C25.8578 12.1113 26.0383 12.5176 25.9932 12.9746Z" fill="#030B17"/>
</svg>
