<svg width="26" height="26" viewBox="0 0 26 26" fill="none" xmlns="http://www.w3.org/2000/svg">
<g clip-path="url(#clip0_9_128)">
<path d="M13 13C14.9702 13 16.8597 12.3152 18.2528 11.0962C19.6459 9.87721 20.4286 8.22391 20.4286 6.5C20.4286 4.77609 19.6459 3.12279 18.2528 1.90381C16.8597 0.68482 14.9702 0 13 0C11.0298 0 9.14033 0.68482 7.74721 1.90381C6.35408 3.12279 5.57143 4.77609 5.57143 6.5C5.57143 8.22391 6.35408 9.87721 7.74721 11.0962C9.14033 12.3152 11.0298 13 13 13ZM10.3478 15.4375C4.63125 15.4375 0 19.4898 0 24.4918C0 25.3246 0.771875 26 1.72366 26H24.2763C25.2281 26 26 25.3246 26 24.4918C26 19.4898 21.3687 15.4375 15.6522 15.4375H10.3478Z" fill="#030B17"/>
</g>
<defs>
<clipPath id="clip0_9_128">
<rect width="26" height="26" fill="white"/>
</clipPath>
</defs>
</svg>
