<svg width="334" height="119" viewBox="0 0 334 119" fill="none" xmlns="http://www.w3.org/2000/svg">
<g filter="url(#filter0_b_473_8)">
<rect width="334" height="119" rx="35" fill="#E8EAF0"/>
</g>
<path d="M20.7904 93.1807C21.6889 92.6045 22.4799 91.8525 23.1635 90.9248C23.8568 89.9873 24.2035 89.0156 24.2035 88.0098V86.6914H25.0824V87.9951C25.0824 88.6201 25.2729 89.2598 25.6537 89.9141C26.0443 90.5684 26.4594 91.1055 26.8988 91.5254C27.3383 91.9355 27.7729 92.2773 28.2025 92.5508L27.6459 93.1514C27.0893 92.7803 26.5082 92.2725 25.9027 91.6279C25.307 90.9834 24.9018 90.3779 24.6869 89.8115C24.4623 90.4756 24.0229 91.1885 23.3686 91.9502C22.724 92.7021 22.0648 93.3125 21.391 93.7812L20.7904 93.1807ZM28.7006 93.9277V86.3105H29.4916V89.8408H31.6889V86.1201H32.5238V94.5137H31.6889V90.6318H29.4916V93.9277H28.7006ZM23.2221 96.8721C23.2221 96.1299 23.6469 95.5586 24.4965 95.1582C25.3559 94.748 26.518 94.543 27.9828 94.543C29.4574 94.543 30.6293 94.7432 31.4984 95.1436C32.3773 95.5439 32.8168 96.1201 32.8168 96.8721C32.8168 97.6045 32.3725 98.1758 31.4838 98.5859C30.6049 99.0059 29.4379 99.2109 27.9828 99.2012C26.4887 99.1914 25.3217 98.9863 24.4818 98.5859C23.642 98.1855 23.2221 97.6143 23.2221 96.8721ZM24.1889 96.8721C24.1889 97.3799 24.5258 97.7656 25.1996 98.0293C25.8832 98.3027 26.8158 98.4395 27.9975 98.4395C29.14 98.4395 30.0678 98.2979 30.7807 98.0146C31.5033 97.7412 31.8646 97.3604 31.8646 96.8721C31.8646 96.3545 31.5131 95.9639 30.81 95.7002C30.1068 95.4365 29.1693 95.3047 27.9975 95.3047C26.8256 95.3047 25.8979 95.4414 25.2143 95.7148C24.5307 95.9785 24.1889 96.3643 24.1889 96.8721ZM38.3938 86.8525V86.1787H42.9641V86.8525H38.3938ZM36.4455 88.5078V87.8633H44.4289V88.5078H36.4455ZM37.0607 90.6025C37.0607 90.1436 37.4074 89.8066 38.1008 89.5918C38.8039 89.3672 39.6584 89.2549 40.6643 89.2549C41.6799 89.2549 42.5295 89.3623 43.2131 89.5771C43.9064 89.792 44.2531 90.1338 44.2531 90.6025C44.2531 91.0615 43.9162 91.4033 43.2424 91.6279C42.5686 91.8428 41.7092 91.9502 40.6643 91.9502C39.6389 91.9502 38.7795 91.8428 38.0861 91.6279C37.4025 91.4131 37.0607 91.0713 37.0607 90.6025ZM38.0129 90.6025C38.0129 91.0908 38.8967 91.335 40.6643 91.335C42.4221 91.335 43.301 91.0908 43.301 90.6025C43.301 90.1143 42.4221 89.8701 40.6643 89.8701C38.8967 89.8701 38.0129 90.1143 38.0129 90.6025ZM35.9621 93.6934V93.0635H37.4855C41.0109 93.0635 43.677 92.9512 45.4836 92.7266V93.3711C43.6281 93.5859 40.9572 93.6934 37.4709 93.6934H35.9621ZM40.1955 93.3418V91.5547H41.0598V93.3418H40.1955ZM45.9963 94.001V86.1201H46.8605V90.251H48.7209V91.0273H46.8605V94.001H45.9963ZM37.8664 99.1572V96.6084H45.9816V95.3779H37.7346V94.7188H46.8605V97.2236H38.76V98.498H47.3V99.1572H37.8664ZM55.4217 90.1924C56.6814 89.8408 57.8387 89.3232 58.8934 88.6396C59.9578 87.9463 60.49 87.2529 60.49 86.5596V86.1494H61.3689V86.5596C61.3689 86.9209 61.535 87.2969 61.867 87.6875C62.2088 88.0684 62.6385 88.4199 63.1561 88.7422C63.6834 89.0547 64.2303 89.3379 64.7967 89.5918C65.3728 89.8359 65.9197 90.0312 66.4373 90.1777L66.0125 90.8369C65.075 90.5928 64.0984 90.1875 63.0828 89.6211C62.077 89.0547 61.3641 88.459 60.9441 87.834C60.5437 88.459 59.8553 89.0498 58.8787 89.6064C57.9119 90.1533 56.9061 90.5781 55.8611 90.8809L55.4217 90.1924ZM54.4549 92.9023V92.1553H67.3455V92.9023H54.4549ZM56.5057 99.04V94.0156H57.3846V95.5537H64.4891V94.0156H65.368V99.04H56.5057ZM57.3846 98.2783H64.4891V96.2861H57.3846V98.2783ZM70.6959 87.7754V87.0283H77.4781C77.4781 88.6201 77.273 90.207 76.8629 91.7891H75.9986C76.399 90.2949 76.5992 88.957 76.5992 87.7754H70.6959ZM69.568 93.8691V93.1074H71.0475C74.6314 93.1074 77.2877 93 79.0162 92.7852V93.5176C77.1119 93.752 74.4508 93.8691 71.0328 93.8691H69.568ZM72.8785 93.4004V89.7529H73.7428V93.4004H72.8785ZM79.5436 96.0078V86.1201H80.4078V90.8223H82.3414V91.584H80.4078V96.0078H79.5436ZM71.8824 98.8496V95.1143H72.7613V98.0586H80.9205V98.8496H71.8824Z" fill="#212121"/>
<path d="M35.047 30V39.4052H67.9653V30H35.047ZM35.047 44.1078V67.1976C35.047 67.4328 35.2351 67.6209 35.4703 67.6209H67.495C67.7302 67.6209 67.9183 67.4328 67.9183 67.1976V44.1078H35H35.047ZM39.7496 48.8104H44.4522V53.513H39.7496V48.8104ZM49.1549 48.8104H53.8575V53.513H49.1549V48.8104ZM58.5601 48.8104H63.2627V53.513H58.5601V48.8104ZM39.7496 58.2157H44.4522V62.9183H39.7496V58.2157ZM49.1549 58.2157H53.8575V62.9183H49.1549V58.2157Z" fill="#2D4B9A"/>
<path d="M114.866 92.7559C115.53 92.4141 116.155 92.0088 116.741 91.54C117.327 91.0713 117.845 90.4902 118.294 89.7969C118.743 89.1035 118.968 88.4102 118.968 87.7168V86.6182H119.847V87.6875C119.847 88.2148 119.979 88.7422 120.242 89.2695C120.506 89.7871 120.848 90.2461 121.268 90.6465C121.697 91.0469 122.112 91.3887 122.513 91.6719C122.913 91.9551 123.309 92.1943 123.699 92.3896L123.172 93.0195C122.508 92.6973 121.8 92.2041 121.048 91.54C120.296 90.876 119.754 90.1973 119.422 89.5039C119.119 90.207 118.577 90.9248 117.796 91.6572C117.015 92.3799 116.224 92.9512 115.423 93.3711L114.866 92.7559ZM125.516 94.0889V86.1201H126.409V94.0889H125.516ZM117.313 95.6416V94.8652H126.409V99.4209H125.516V95.6416H117.313ZM130.492 90.1924C131.752 89.8408 132.909 89.3232 133.964 88.6396C135.028 87.9463 135.561 87.2529 135.561 86.5596V86.1494H136.439V86.5596C136.439 86.9209 136.605 87.2969 136.937 87.6875C137.279 88.0684 137.709 88.4199 138.227 88.7422C138.754 89.0547 139.301 89.3379 139.867 89.5918C140.443 89.8359 140.99 90.0312 141.508 90.1777L141.083 90.8369C140.146 90.5928 139.169 90.1875 138.153 89.6211C137.147 89.0547 136.435 88.459 136.015 87.834C135.614 88.459 134.926 89.0498 133.949 89.6064C132.982 90.1533 131.977 90.5781 130.932 90.8809L130.492 90.1924ZM129.525 92.9023V92.1553H142.416V92.9023H129.525ZM131.576 99.04V94.0156H132.455V95.5537H139.56V94.0156H140.438V99.04H131.576ZM132.455 98.2783H139.56V96.2861H132.455V98.2783ZM145.766 87.7754V87.0283H152.549C152.549 88.6201 152.344 90.207 151.933 91.7891H151.069C151.47 90.2949 151.67 88.957 151.67 87.7754H145.766ZM144.638 93.8691V93.1074H146.118C149.702 93.1074 152.358 93 154.087 92.7852V93.5176C152.182 93.752 149.521 93.8691 146.103 93.8691H144.638ZM147.949 93.4004V89.7529H148.813V93.4004H147.949ZM154.614 96.0078V86.1201H155.478V90.8223H157.412V91.584H155.478V96.0078H154.614ZM146.953 98.8496V95.1143H147.832V98.0586H155.991V98.8496H146.953Z" fill="#212121"/>
<path d="M143.661 30C144.347 34.1153 140.05 37.2343 137.648 38.6328C136.939 39.0453 136.14 38.52 136.262 37.7092C136.673 34.9831 138.174 30.0002 143.661 30Z" fill="#CE2626"/>
<path d="M130.442 38.4979C132.136 38.4979 133.635 38.8745 134.775 39.2913C136.214 39.8171 137.89 39.8171 139.328 39.2913C140.469 38.8745 141.968 38.4979 143.661 38.4979C145.71 38.4979 148.316 39.61 150.27 41.8341C143.661 46.9958 145.55 55.4938 151.723 57.744C149.752 63.1593 146.005 66.8243 142.717 66.8243C139.884 66.8243 139.884 65.5024 137.052 65.5024C134.219 65.5024 134.219 66.8243 131.386 66.8243C126.665 66.8243 121 59.2706 121 49.8285C121 42.2748 126.665 38.4979 130.442 38.4979Z" fill="#CE2626"/>
<path d="M201.14 87.043V86.3545H205.886V87.043H201.14ZM199.075 92.7119C199.68 92.5166 200.271 92.2676 200.847 91.9648C201.423 91.6523 201.921 91.291 202.341 90.8809C202.761 90.4707 202.981 90.0801 203.001 89.709V89.2402H199.529V88.5225H207.307V89.2402H204.011V89.6797C204.031 90.0312 204.251 90.4023 204.671 90.793C205.09 91.1738 205.545 91.501 206.033 91.7744C206.531 92.0381 207.039 92.2725 207.556 92.4775L207.087 93.0781C206.433 92.834 205.754 92.4971 205.051 92.0674C204.358 91.6377 203.85 91.2031 203.528 90.7637C203.206 91.2227 202.659 91.7012 201.887 92.1992C201.116 92.6973 200.335 93.0732 199.544 93.3271L199.075 92.7119ZM208.992 99.3037V86.1201H209.871V99.3037H208.992ZM198.577 94.9678V94.2207H200.291C203.572 94.2207 206.277 94.0938 208.406 93.8398V94.5869C207.429 94.7139 205.852 94.8164 203.674 94.8945V99.0986H202.796V94.9385C202.18 94.958 201.34 94.9678 200.276 94.9678H198.577ZM214.232 96.4912V87.4824H220.208V96.4912H214.232ZM215.096 95.7148H219.344V88.2588H215.096V95.7148ZM223.504 99.3037V86.1201H224.412V99.3037H223.504Z" fill="#212121"/>
<path d="M229.289 44.4615C229.113 44.9541 228.841 45.4065 228.487 45.7918C228.133 46.1771 227.706 46.4877 227.23 46.7051C224.699 47.8384 222.548 49.6783 221.036 52.0043C219.525 54.3302 218.717 57.0428 218.709 59.8167C218.712 60.7843 218.809 61.7492 218.997 62.6983C219.123 63.2784 219.131 63.8777 219.022 64.4611C218.912 65.0442 218.687 65.5997 218.359 66.0946C218.082 66.5276 217.717 66.8979 217.288 67.1816C216.859 67.465 216.375 67.6558 215.868 67.7412C214.769 67.9479 213.653 68.0512 212.534 68.05C210.052 68.0512 207.595 67.5535 205.309 66.5867C203.023 65.6199 200.955 64.2038 199.227 62.4219C197.499 60.6402 196.147 58.5296 195.25 56.215C194.354 53.9004 193.932 51.4294 194.009 48.9487C194.169 44.3232 196.045 39.9228 199.271 36.6048C202.498 33.2867 206.844 31.2887 211.464 31H212.513C215.963 31.0009 219.343 31.9647 222.274 33.783C225.205 35.6013 227.571 38.2018 229.104 41.2917C229.575 42.2693 229.642 43.3938 229.289 44.4203V44.4615Z" fill="#212121" stroke="#E8EAF0" stroke-width="2"/>
<path d="M203.54 57.7795L203.561 57.756L203.54 57.7795Z" fill="#212121"/>
<path d="M203.54 57.7795L203.561 57.756" stroke="#E8EAF0" stroke-width="2" stroke-linecap="round" stroke-linejoin="round"/>
<path d="M199.423 49.5461L199.444 49.5227L199.423 49.5461Z" fill="#212121"/>
<path d="M199.423 49.5461L199.444 49.5227" stroke="#E8EAF0" stroke-width="2" stroke-linecap="round" stroke-linejoin="round"/>
<path d="M203.54 41.3128L203.561 41.2894L203.54 41.3128Z" fill="#212121"/>
<path d="M203.54 41.3128L203.561 41.2894" stroke="#E8EAF0" stroke-width="2" stroke-linecap="round" stroke-linejoin="round"/>
<path d="M211.773 37.1961L211.794 37.1727L211.773 37.1961Z" fill="#212121"/>
<path d="M211.773 37.1961L211.794 37.1727" stroke="#E8EAF0" stroke-width="2" stroke-linecap="round" stroke-linejoin="round"/>
<path d="M220.007 41.3128L220.028 41.2894L220.007 41.3128Z" fill="#212121"/>
<path d="M220.007 41.3128L220.028 41.2894" stroke="#E8EAF0" stroke-width="2" stroke-linecap="round" stroke-linejoin="round"/>
<path d="M276.673 86.8418V86.1855H280.966V86.8418H276.673ZM274.882 88.5918V87.9355H282.319V88.5918H274.882ZM275.47 90.916C275.47 90.4147 275.789 90.0365 276.427 89.7812C277.074 89.526 277.867 89.3984 278.806 89.3984C279.735 89.3984 280.519 89.526 281.157 89.7812C281.804 90.0365 282.128 90.4147 282.128 90.916C282.128 91.4173 281.809 91.8001 281.171 92.0645C280.533 92.3197 279.744 92.4473 278.806 92.4473C277.867 92.4473 277.074 92.3197 276.427 92.0645C275.789 91.8001 275.47 91.4173 275.47 90.916ZM276.345 90.916C276.345 91.2077 276.577 91.4355 277.042 91.5996C277.507 91.7546 278.095 91.832 278.806 91.832C279.507 91.832 280.091 91.7546 280.556 91.5996C281.02 91.4447 281.253 91.2168 281.253 90.916C281.253 90.6152 281.025 90.3919 280.569 90.2461C280.114 90.0911 279.526 90.0137 278.806 90.0137C278.086 90.0137 277.493 90.0911 277.028 90.2461C276.573 90.401 276.345 90.6243 276.345 90.916ZM274.417 94.4023V93.7598H275.839C278.938 93.7598 281.403 93.6458 283.235 93.418V94.0605C281.349 94.2884 278.879 94.4023 275.825 94.4023H274.417ZM278.395 94.0332V92.1602H279.202V94.0332H278.395ZM283.727 95.7422V85.9121H284.534V90.9434H286.298V91.6543H284.534V95.7422H283.727ZM276.522 97.9023V95.1543H277.343V97.2051H285.013V97.9023H276.522ZM288.399 92.5703C289.858 92.0052 291.088 91.2533 292.091 90.3145C293.093 89.3665 293.645 88.3913 293.745 87.3887H289.069V86.6641H294.661C294.652 87.4388 294.474 88.1771 294.128 88.8789C293.791 89.5807 293.335 90.2005 292.761 90.7383C292.196 91.2669 291.594 91.7318 290.956 92.1328C290.318 92.5247 289.63 92.8711 288.892 93.1719L288.399 92.5703ZM294.565 91.5039V90.8066H297.901V88.7695H294.907V88.0723H297.901V85.9121H298.722V93.6641H297.901V91.5039H294.565ZM290.163 95.9199C290.163 95.2272 290.555 94.6895 291.339 94.3066C292.132 93.9147 293.203 93.7188 294.552 93.7188C295.91 93.7188 296.99 93.9102 297.792 94.293C298.594 94.6667 298.995 95.209 298.995 95.9199C298.995 96.6126 298.59 97.1504 297.778 97.5332C296.976 97.9251 295.901 98.1165 294.552 98.1074C293.175 98.0983 292.1 97.9023 291.325 97.5195C290.55 97.1458 290.163 96.6126 290.163 95.9199ZM291.052 95.9199C291.052 96.3939 291.362 96.7585 291.981 97.0137C292.61 97.2689 293.467 97.3965 294.552 97.3965C295.609 97.3965 296.466 97.2643 297.122 97C297.787 96.7448 298.12 96.3848 298.12 95.9199C298.12 95.4277 297.797 95.0586 297.149 94.8125C296.502 94.5573 295.636 94.4297 294.552 94.4297C293.476 94.4297 292.624 94.5573 291.995 94.8125C291.366 95.0677 291.052 95.4368 291.052 95.9199Z" fill="#212121"/>
<path d="M281.483 60.3271C304.154 60.3271 305.98 41.038 306.125 31.8731C306.141 30.8259 305.265 29.9811 304.217 30.0003C272 30.592 272 46.211 272 60.3271V67.9131" fill="#0DA72F"/>
<path d="M281.483 60.3271C304.154 60.3271 305.98 41.038 306.125 31.8731C306.141 30.8259 305.265 29.9811 304.217 30.0003C272 30.592 272 46.211 272 60.3271V67.9131" stroke="#E8EAF0" stroke-width="2" stroke-linecap="round" stroke-linejoin="round"/>
<path d="M272 60.327C272 60.327 272 48.948 287.172 47.0515L272 60.327Z" fill="#0DA72F"/>
<path d="M272 60.327C272 60.327 272 48.948 287.172 47.0515" stroke="#E8EAF0" stroke-width="2" stroke-linecap="round" stroke-linejoin="round"/>
<defs>
<filter id="filter0_b_473_8" x="-3" y="-3" width="340" height="125" filterUnits="userSpaceOnUse" color-interpolation-filters="sRGB">
<feFlood flood-opacity="0" result="BackgroundImageFix"/>
<feGaussianBlur in="BackgroundImageFix" stdDeviation="1.5"/>
<feComposite in2="SourceAlpha" operator="in" result="effect1_backgroundBlur_473_8"/>
<feBlend mode="normal" in="SourceGraphic" in2="effect1_backgroundBlur_473_8" result="shape"/>
</filter>
</defs>
</svg>
