<svg width="127" height="23" viewBox="0 0 127 23" fill="none" xmlns="http://www.w3.org/2000/svg">
<path d="M9.82769 10.864H16.9907V21.188C15.9467 21.5553 14.8737 21.826 13.7717 22C12.6697 22.1933 11.4324 22.29 10.0597 22.29C8.06835 22.29 6.37669 21.8647 4.98469 21.014C3.61202 20.1633 2.55835 18.9453 1.82369 17.36C1.10835 15.7747 0.750686 13.8703 0.750686 11.647C0.750686 9.48167 1.14702 7.60633 1.93969 6.021C2.73235 4.43567 3.88269 3.208 5.39069 2.338C6.89869 1.44867 8.72569 1.004 10.8717 1.004C11.9737 1.004 13.0177 1.12 14.0037 1.352C15.009 1.56467 15.9274 1.86433 16.7587 2.251L15.6277 4.861C14.951 4.53233 14.197 4.26167 13.3657 4.049C12.5537 3.817 11.703 3.701 10.8137 3.701C9.38302 3.701 8.16502 4.02967 7.15969 4.687C6.15435 5.325 5.39069 6.24333 4.86869 7.442C4.34669 8.62133 4.08569 10.0327 4.08569 11.676C4.08569 13.2227 4.30802 14.5953 4.75269 15.794C5.19735 16.9927 5.89335 17.9303 6.84069 18.607C7.78802 19.2837 9.01569 19.622 10.5237 19.622C11.0264 19.622 11.471 19.6027 11.8577 19.564C12.2444 19.506 12.602 19.448 12.9307 19.39C13.2787 19.3127 13.588 19.245 13.8587 19.187V13.561H9.82769V10.864ZM39.7142 11.618C39.7142 13.2227 39.5209 14.6823 39.1342 15.997C38.7669 17.2923 38.1966 18.4137 37.4232 19.361C36.6692 20.3083 35.7219 21.0333 34.5812 21.536C33.4406 22.0387 32.1162 22.29 30.6082 22.29C29.0616 22.29 27.7082 22.0387 26.5482 21.536C25.4076 21.014 24.4602 20.289 23.7062 19.361C22.9522 18.4137 22.3916 17.2827 22.0242 15.968C21.6569 14.6533 21.4732 13.1937 21.4732 11.589C21.4732 9.46233 21.8019 7.60633 22.4592 6.021C23.1359 4.43567 24.1509 3.19833 25.5042 2.309C26.8576 1.41967 28.5686 0.974999 30.6372 0.974999C32.6479 0.974999 34.3202 1.41967 35.6542 2.309C37.0076 3.179 38.0226 4.41633 38.6992 6.021C39.3759 7.60633 39.7142 9.472 39.7142 11.618ZM24.8662 11.618C24.8662 13.2807 25.0596 14.7113 25.4462 15.91C25.8522 17.0893 26.4806 18.0077 27.3312 18.665C28.2012 19.303 29.2936 19.622 30.6082 19.622C31.9422 19.622 33.0249 19.303 33.8562 18.665C34.7069 18.0077 35.3256 17.0893 35.7122 15.91C36.1182 14.7113 36.3212 13.2807 36.3212 11.618C36.3212 9.124 35.8669 7.181 34.9582 5.789C34.0496 4.37767 32.6092 3.672 30.6372 3.672C29.3032 3.672 28.2012 3.991 27.3312 4.629C26.4806 5.267 25.8522 6.17567 25.4462 7.355C25.0596 8.53433 24.8662 9.95533 24.8662 11.618ZM60.5727 11.444C60.5727 13.764 60.157 15.707 59.3257 17.273C58.5137 18.839 57.344 20.0183 55.8167 20.811C54.2894 21.6037 52.443 22 50.2777 22H44.7097V1.294H50.8577C52.849 1.294 54.5697 1.68067 56.0197 2.454C57.4697 3.22733 58.591 4.368 59.3837 5.876C60.1764 7.36467 60.5727 9.22067 60.5727 11.444ZM57.2087 11.531C57.2087 9.791 56.9574 8.36033 56.4547 7.239C55.952 6.11767 55.2077 5.28633 54.2217 4.745C53.255 4.20367 52.066 3.933 50.6547 3.933H47.9287V19.361H50.1907C52.53 19.361 54.2797 18.7037 55.4397 17.389C56.619 16.0743 57.2087 14.1217 57.2087 11.531ZM73.5239 22V1.294H76.7429V19.303H84.9789V22H73.5239ZM95.4998 22H87.6408V20.202L89.9608 19.477V3.846L87.6408 3.092V1.294H95.4998V3.092L93.1798 3.846V19.477L95.4998 20.202V22ZM103.121 22H99.9309V1.294H110.98V3.962H103.121V10.719H110.487V13.387H103.121V22ZM126.265 22H115.216V1.294H126.265V3.962H118.435V9.878H125.801V12.517H118.435V19.303H126.265V22Z" fill="#222222"/>
</svg>
