<svg width="21" height="20" viewBox="0 0 21 20" fill="none" xmlns="http://www.w3.org/2000/svg">
<g opacity="0.77">
<path d="M8.41667 2.5C9.85326 2.5 11.231 3.07068 12.2468 4.0865C13.2627 5.10233 13.8333 6.48008 13.8333 7.91667C13.8333 9.25833 13.3417 10.4917 12.5333 11.4417L12.7583 11.6667H13.4167L17.5833 15.8333L16.3333 17.0833L12.1667 12.9167V12.2583L11.9417 12.0333C10.9917 12.8417 9.75833 13.3333 8.41667 13.3333C6.98008 13.3333 5.60233 12.7627 4.5865 11.7468C3.57068 10.731 3 9.35326 3 7.91667C3 6.48008 3.57068 5.10233 4.5865 4.0865C5.60233 3.07068 6.98008 2.5 8.41667 2.5ZM8.41667 4.16667C6.33333 4.16667 4.66667 5.83333 4.66667 7.91667C4.66667 10 6.33333 11.6667 8.41667 11.6667C10.5 11.6667 12.1667 10 12.1667 7.91667C12.1667 5.83333 10.5 4.16667 8.41667 4.16667Z" fill="#8A8A8A"/>
</g>
</svg>
